<mxfile host="app.diagrams.net" modified="2024-04-24T16:42:42.669Z" agent="Mozilla/5.0 (Windows NT 10.0; Win64; x64) AppleWebKit/537.36 (KHTML, like Gecko) Chrome/124.0.0.0 Safari/537.36" etag="6qXxAWXoKNH3aF_-Fvac" version="24.3.0" type="github">
  <diagram name="PÃ¡gina-1" id="ivm543QAsBlA2PqCl2Cw">
    <mxGraphModel dx="1434" dy="780" grid="1" gridSize="10" guides="1" tooltips="1" connect="1" arrows="1" fold="1" page="1" pageScale="1" pageWidth="827" pageHeight="1169" math="0" shadow="0">
      <root>
        <mxCell id="0" />
        <mxCell id="1" parent="0" />
        <mxCell id="XsWiOll9HPVdgsjEAhDF-14" style="edgeStyle=orthogonalEdgeStyle;rounded=0;orthogonalLoop=1;jettySize=auto;html=1;exitX=0.5;exitY=1;exitDx=0;exitDy=0;entryX=0.5;entryY=0;entryDx=0;entryDy=0;" edge="1" parent="1" source="XsWiOll9HPVdgsjEAhDF-3" target="XsWiOll9HPVdgsjEAhDF-5">
          <mxGeometry relative="1" as="geometry" />
        </mxCell>
        <mxCell id="XsWiOll9HPVdgsjEAhDF-3" value="INICIO" style="ellipse;whiteSpace=wrap;html=1;fontStyle=1;fontFamily=Comic Sans MS;fontSize=15;" vertex="1" parent="1">
          <mxGeometry x="320" y="30" width="120" height="80" as="geometry" />
        </mxCell>
        <mxCell id="XsWiOll9HPVdgsjEAhDF-12" style="edgeStyle=orthogonalEdgeStyle;rounded=0;orthogonalLoop=1;jettySize=auto;html=1;exitX=0.5;exitY=1;exitDx=0;exitDy=0;entryX=0.5;entryY=0;entryDx=0;entryDy=0;" edge="1" parent="1" source="XsWiOll9HPVdgsjEAhDF-5" target="XsWiOll9HPVdgsjEAhDF-6">
          <mxGeometry relative="1" as="geometry" />
        </mxCell>
        <mxCell id="XsWiOll9HPVdgsjEAhDF-5" value="Enter Number" style="rounded=0;whiteSpace=wrap;html=1;" vertex="1" parent="1">
          <mxGeometry x="320" y="140" width="120" height="60" as="geometry" />
        </mxCell>
        <mxCell id="XsWiOll9HPVdgsjEAhDF-16" value="Si" style="edgeStyle=orthogonalEdgeStyle;rounded=0;orthogonalLoop=1;jettySize=auto;html=1;exitX=0;exitY=1;exitDx=0;exitDy=0;entryX=0.5;entryY=0;entryDx=0;entryDy=0;" edge="1" parent="1" source="XsWiOll9HPVdgsjEAhDF-6" target="XsWiOll9HPVdgsjEAhDF-15">
          <mxGeometry relative="1" as="geometry" />
        </mxCell>
        <mxCell id="XsWiOll9HPVdgsjEAhDF-39" style="edgeStyle=orthogonalEdgeStyle;rounded=0;orthogonalLoop=1;jettySize=auto;html=1;exitX=1;exitY=0.5;exitDx=0;exitDy=0;entryX=0.5;entryY=1;entryDx=0;entryDy=0;" edge="1" parent="1" source="XsWiOll9HPVdgsjEAhDF-6" target="XsWiOll9HPVdgsjEAhDF-18">
          <mxGeometry relative="1" as="geometry" />
        </mxCell>
        <mxCell id="XsWiOll9HPVdgsjEAhDF-6" value="Number !=0 (?" style="rhombus;whiteSpace=wrap;html=1;" vertex="1" parent="1">
          <mxGeometry x="314" y="395" width="100" height="90" as="geometry" />
        </mxCell>
        <mxCell id="XsWiOll9HPVdgsjEAhDF-21" style="edgeStyle=orthogonalEdgeStyle;rounded=0;orthogonalLoop=1;jettySize=auto;html=1;exitX=0.5;exitY=1;exitDx=0;exitDy=0;entryX=0.5;entryY=0;entryDx=0;entryDy=0;" edge="1" parent="1" source="XsWiOll9HPVdgsjEAhDF-15">
          <mxGeometry relative="1" as="geometry">
            <mxPoint x="215" y="410" as="targetPoint" />
          </mxGeometry>
        </mxCell>
        <mxCell id="XsWiOll9HPVdgsjEAhDF-15" value="Mostrar Contador" style="shape=parallelogram;perimeter=parallelogramPerimeter;whiteSpace=wrap;html=1;fixedSize=1;size=10;" vertex="1" parent="1">
          <mxGeometry x="160" y="350" width="110" height="40" as="geometry" />
        </mxCell>
        <mxCell id="XsWiOll9HPVdgsjEAhDF-40" style="edgeStyle=orthogonalEdgeStyle;rounded=0;orthogonalLoop=1;jettySize=auto;html=1;exitX=0.5;exitY=0;exitDx=0;exitDy=0;entryX=0.5;entryY=1;entryDx=0;entryDy=0;" edge="1" parent="1" source="XsWiOll9HPVdgsjEAhDF-18" target="XsWiOll9HPVdgsjEAhDF-22">
          <mxGeometry relative="1" as="geometry" />
        </mxCell>
        <mxCell id="XsWiOll9HPVdgsjEAhDF-18" value="Contador +1" style="rounded=0;whiteSpace=wrap;html=1;" vertex="1" parent="1">
          <mxGeometry x="425" y="400" width="80" height="30" as="geometry" />
        </mxCell>
        <mxCell id="XsWiOll9HPVdgsjEAhDF-25" style="edgeStyle=orthogonalEdgeStyle;rounded=0;orthogonalLoop=1;jettySize=auto;html=1;exitX=0.5;exitY=1;exitDx=0;exitDy=0;entryX=0.5;entryY=0;entryDx=0;entryDy=0;" edge="1" parent="1">
          <mxGeometry relative="1" as="geometry">
            <mxPoint x="215" y="470" as="sourcePoint" />
            <mxPoint x="215" y="490" as="targetPoint" />
          </mxGeometry>
        </mxCell>
        <mxCell id="XsWiOll9HPVdgsjEAhDF-41" style="edgeStyle=orthogonalEdgeStyle;rounded=0;orthogonalLoop=1;jettySize=auto;html=1;exitX=0.5;exitY=0;exitDx=0;exitDy=0;entryX=0.5;entryY=1;entryDx=0;entryDy=0;" edge="1" parent="1" source="XsWiOll9HPVdgsjEAhDF-22" target="XsWiOll9HPVdgsjEAhDF-30">
          <mxGeometry relative="1" as="geometry" />
        </mxCell>
        <mxCell id="XsWiOll9HPVdgsjEAhDF-22" value="suma_total += Number" style="rounded=0;whiteSpace=wrap;html=1;" vertex="1" parent="1">
          <mxGeometry x="410" y="350" width="110" height="30" as="geometry" />
        </mxCell>
        <mxCell id="XsWiOll9HPVdgsjEAhDF-29" style="edgeStyle=orthogonalEdgeStyle;rounded=0;orthogonalLoop=1;jettySize=auto;html=1;exitX=0.5;exitY=1;exitDx=0;exitDy=0;entryX=0.5;entryY=0;entryDx=0;entryDy=0;" edge="1" parent="1">
          <mxGeometry relative="1" as="geometry">
            <mxPoint x="215" y="550" as="sourcePoint" />
            <mxPoint x="215" y="570" as="targetPoint" />
          </mxGeometry>
        </mxCell>
        <mxCell id="XsWiOll9HPVdgsjEAhDF-26" value="" style="endArrow=classic;html=1;rounded=0;" edge="1" parent="1">
          <mxGeometry width="50" height="50" relative="1" as="geometry">
            <mxPoint x="370" y="510" as="sourcePoint" />
            <mxPoint x="280" y="520" as="targetPoint" />
          </mxGeometry>
        </mxCell>
        <mxCell id="XsWiOll9HPVdgsjEAhDF-27" value="Promedio = suma_total/contador" style="text;html=1;align=center;verticalAlign=middle;whiteSpace=wrap;rounded=0;" vertex="1" parent="1">
          <mxGeometry x="360" y="490" width="210" height="30" as="geometry" />
        </mxCell>
        <mxCell id="XsWiOll9HPVdgsjEAhDF-38" style="edgeStyle=orthogonalEdgeStyle;rounded=0;orthogonalLoop=1;jettySize=auto;html=1;exitX=0.5;exitY=1;exitDx=0;exitDy=0;entryX=0.5;entryY=0;entryDx=0;entryDy=0;" edge="1" parent="1">
          <mxGeometry relative="1" as="geometry">
            <mxPoint x="215" y="630" as="sourcePoint" />
            <mxPoint x="215" y="650" as="targetPoint" />
          </mxGeometry>
        </mxCell>
        <mxCell id="XsWiOll9HPVdgsjEAhDF-31" value="Si" style="edgeStyle=orthogonalEdgeStyle;rounded=0;orthogonalLoop=1;jettySize=auto;html=1;exitX=1;exitY=1;exitDx=0;exitDy=0;entryX=0;entryY=0;entryDx=0;entryDy=0;" edge="1" parent="1" source="XsWiOll9HPVdgsjEAhDF-30" target="XsWiOll9HPVdgsjEAhDF-32">
          <mxGeometry relative="1" as="geometry">
            <mxPoint x="580" y="340" as="targetPoint" />
            <Array as="points">
              <mxPoint x="581" y="300" />
              <mxPoint x="581" y="310" />
            </Array>
          </mxGeometry>
        </mxCell>
        <mxCell id="XsWiOll9HPVdgsjEAhDF-34" value="No" style="edgeStyle=orthogonalEdgeStyle;rounded=0;orthogonalLoop=1;jettySize=auto;html=1;exitX=1;exitY=0;exitDx=0;exitDy=0;entryX=0;entryY=0.75;entryDx=0;entryDy=0;" edge="1" parent="1" source="XsWiOll9HPVdgsjEAhDF-30" target="XsWiOll9HPVdgsjEAhDF-33">
          <mxGeometry relative="1" as="geometry" />
        </mxCell>
        <mxCell id="XsWiOll9HPVdgsjEAhDF-47" style="edgeStyle=orthogonalEdgeStyle;rounded=0;orthogonalLoop=1;jettySize=auto;html=1;exitX=1;exitY=0.5;exitDx=0;exitDy=0;entryX=1;entryY=0.5;entryDx=0;entryDy=0;" edge="1" parent="1" source="XsWiOll9HPVdgsjEAhDF-32" target="XsWiOll9HPVdgsjEAhDF-5">
          <mxGeometry relative="1" as="geometry" />
        </mxCell>
        <mxCell id="XsWiOll9HPVdgsjEAhDF-32" value="suma_pos += Number" style="rounded=1;whiteSpace=wrap;html=1;" vertex="1" parent="1">
          <mxGeometry x="600" y="310" width="130" height="60" as="geometry" />
        </mxCell>
        <mxCell id="XsWiOll9HPVdgsjEAhDF-33" value="suma_neg += Number" style="rounded=1;whiteSpace=wrap;html=1;" vertex="1" parent="1">
          <mxGeometry x="570" y="200" width="160" height="60" as="geometry" />
        </mxCell>
        <mxCell id="XsWiOll9HPVdgsjEAhDF-30" value="Number&amp;gt;0 ?" style="rhombus;whiteSpace=wrap;html=1;" vertex="1" parent="1">
          <mxGeometry x="420" y="240" width="80" height="80" as="geometry" />
        </mxCell>
        <mxCell id="XsWiOll9HPVdgsjEAhDF-42" value="FIN" style="ellipse;whiteSpace=wrap;html=1;" vertex="1" parent="1">
          <mxGeometry x="330" y="680" width="120" height="80" as="geometry" />
        </mxCell>
        <mxCell id="XsWiOll9HPVdgsjEAhDF-43" style="edgeStyle=orthogonalEdgeStyle;rounded=0;orthogonalLoop=1;jettySize=auto;html=1;exitX=0.5;exitY=1;exitDx=0;exitDy=0;entryX=0;entryY=0.75;entryDx=0;entryDy=0;entryPerimeter=0;" edge="1" parent="1" target="XsWiOll9HPVdgsjEAhDF-42">
          <mxGeometry relative="1" as="geometry">
            <mxPoint x="215" y="710" as="sourcePoint" />
          </mxGeometry>
        </mxCell>
        <mxCell id="XsWiOll9HPVdgsjEAhDF-44" style="edgeStyle=orthogonalEdgeStyle;rounded=0;orthogonalLoop=1;jettySize=auto;html=1;exitX=1;exitY=0.5;exitDx=0;exitDy=0;entryX=1;entryY=0.367;entryDx=0;entryDy=0;entryPerimeter=0;" edge="1" parent="1" source="XsWiOll9HPVdgsjEAhDF-33" target="XsWiOll9HPVdgsjEAhDF-5">
          <mxGeometry relative="1" as="geometry" />
        </mxCell>
        <mxCell id="XsWiOll9HPVdgsjEAhDF-48" value="Definir Contador=0&lt;div&gt;Definir suma_total&lt;/div&gt;&lt;div&gt;Definir suma_pos&lt;/div&gt;&lt;div&gt;Definir suma_neg&lt;/div&gt;" style="rounded=0;whiteSpace=wrap;html=1;" vertex="1" parent="1">
          <mxGeometry x="170" y="220" width="240" height="60" as="geometry" />
        </mxCell>
        <mxCell id="XsWiOll9HPVdgsjEAhDF-49" value="Mostrar suma_total" style="shape=parallelogram;perimeter=parallelogramPerimeter;whiteSpace=wrap;html=1;fixedSize=1;" vertex="1" parent="1">
          <mxGeometry x="145" y="410" width="140" height="60" as="geometry" />
        </mxCell>
        <mxCell id="XsWiOll9HPVdgsjEAhDF-50" value="Mostrar promedio" style="shape=parallelogram;perimeter=parallelogramPerimeter;whiteSpace=wrap;html=1;fixedSize=1;" vertex="1" parent="1">
          <mxGeometry x="155" y="490" width="120" height="60" as="geometry" />
        </mxCell>
        <mxCell id="XsWiOll9HPVdgsjEAhDF-51" value="Mostrar suma_pos" style="shape=parallelogram;perimeter=parallelogramPerimeter;whiteSpace=wrap;html=1;fixedSize=1;" vertex="1" parent="1">
          <mxGeometry x="145" y="570" width="150" height="60" as="geometry" />
        </mxCell>
        <mxCell id="XsWiOll9HPVdgsjEAhDF-52" value="Mostrar suma-neg" style="shape=parallelogram;perimeter=parallelogramPerimeter;whiteSpace=wrap;html=1;fixedSize=1;" vertex="1" parent="1">
          <mxGeometry x="145" y="650" width="140" height="60" as="geometry" />
        </mxCell>
      </root>
    </mxGraphModel>
  </diagram>
</mxfile>
